<mxfile host="app.diagrams.net" modified="2023-09-07T02:38:21.322Z" agent="Mozilla/5.0 (Windows NT 10.0; Win64; x64) AppleWebKit/537.36 (KHTML, like Gecko) Chrome/116.0.0.0 Safari/537.36" version="21.7.2" etag="7fXXsGziDs5NWIgU-wTe" type="github">
  <diagram name="Page-1" id="CUOrXQSvjn6hB07Dm3S2">
    <mxGraphModel>
      <root>
        <mxCell id="0" />
        <mxCell id="1" parent="0" />
      </root>
    </mxGraphModel>
  </diagram>
</mxfile>
